<?xml version="1.0" encoding="UTF-8" standalone="no"?>
<!-- Created with Inkscape (http://www.inkscape.org/) -->

<svg
   version="1.1"
   id="svg2"
   xml:space="preserve"
   width="3600"
   height="3600"
   viewBox="0 0 3600 3600"
   sodipodi:docname="Logo EISI 3600x3600px.svg"
   inkscape:version="1.1.2 (b8e25be833, 2022-02-05)"
   inkscape:export-filename="G:\Il mio Drive\Documents\Baskin\EISI\Documenti\Logo [graphics]\2023\Loghi Baskin &amp; EISI 2023\LOGHI_SINGOLI\Logo EISI 3500x2392.png"
   inkscape:export-xdpi="96"
   inkscape:export-ydpi="96"
   xmlns:inkscape="http://www.inkscape.org/namespaces/inkscape"
   xmlns:sodipodi="http://sodipodi.sourceforge.net/DTD/sodipodi-0.dtd"
   xmlns="http://www.w3.org/2000/svg"
   xmlns:svg="http://www.w3.org/2000/svg"><defs
     id="defs6"><clipPath
       clipPathUnits="userSpaceOnUse"
       id="clipPath16"><path
         d="M 0,841.89 H 595.276 V 0 H 0 Z"
         id="path14" /></clipPath><clipPath
       clipPathUnits="userSpaceOnUse"
       id="clipPath92"><path
         d="M 0,841.89 H 595.276 V 0 H 0 Z"
         id="path90" /></clipPath><clipPath
       clipPathUnits="userSpaceOnUse"
       id="clipPath168"><path
         d="M 0,841.89 H 595.276 V 0 H 0 Z"
         id="path166" /></clipPath><clipPath
       clipPathUnits="userSpaceOnUse"
       id="clipPath466"><path
         d="M 0,841.89 H 595.276 V 0 H 0 Z"
         id="path464" /></clipPath><clipPath
       clipPathUnits="userSpaceOnUse"
       id="clipPath482"><path
         d="M 0,841.89 H 595.276 V 0 H 0 Z"
         id="path480" /></clipPath><clipPath
       clipPathUnits="userSpaceOnUse"
       id="clipPath510"><path
         d="M 0,841.89 H 595.276 V 0 H 0 Z"
         id="path508" /></clipPath><clipPath
       clipPathUnits="userSpaceOnUse"
       id="clipPath532"><path
         d="M 0,841.89 H 595.276 V 0 H 0 Z"
         id="path530" /></clipPath></defs><sodipodi:namedview
     id="namedview4"
     pagecolor="#ffffff"
     bordercolor="#666666"
     borderopacity="1.0"
     inkscape:pageshadow="2"
     inkscape:pageopacity="0.0"
     inkscape:pagecheckerboard="true"
     showgrid="false"
     width="3500px"
     inkscape:zoom="0.18507465"
     inkscape:cx="1712.8224"
     inkscape:cy="1572.3385"
     inkscape:window-width="1920"
     inkscape:window-height="1017"
     inkscape:window-x="-8"
     inkscape:window-y="-8"
     inkscape:window-maximized="1"
     inkscape:current-layer="layer1" /><g
     inkscape:groupmode="layer"
     id="layer1"
     inkscape:label="Sfondo bianco"
     style="display:none"><rect
       style="fill:#ffffff;stroke-width:2.89583"
       id="rect111"
       width="3600"
       height="3600"
       x="0"
       y="0"
       inkscape:export-filename="G:\Il mio Drive\Documents\Baskin\EISI\Documenti\Logo [graphics]\2023\Loghi Baskin &amp; EISI 2023\LOGHI_QUADRATI\Logo EISI 3600x3600px.png"
       inkscape:export-xdpi="96"
       inkscape:export-ydpi="96" /></g><g
     id="g8"
     inkscape:groupmode="layer"
     inkscape:label="Logo EISI"
     transform="matrix(1.3333333,0,0,-1.3333333,0,1122.52)"><g
       id="g1378"
       transform="matrix(12.851845,0,0,12.851846,-4194.984,-6499.894)"><g
         id="g170"
         transform="translate(420.3921,470.6608)"><path
           d="m 0,0 c 0,-0.09 -0.064,-0.167 -0.153,-0.184 -0.012,0.002 -0.025,0.003 -0.037,0.003 l -6.799,-0.012 c -0.276,0.024 -0.276,0.142 -0.276,0.246 0,0.138 0.046,0.394 0.27,0.833 l 0.286,0.573 h -0.074 c 0.053,0.21 0.079,0.426 0.079,0.645 -0.002,0.722 -0.283,1.397 -0.792,1.905 -0.51,0.508 -1.185,0.787 -1.902,0.785 -1.48,-0.002 -2.684,-1.209 -2.684,-2.69 0,-0.224 0.027,-0.442 0.08,-0.653 h -0.078 l 0.293,-0.573 c 0.165,-0.321 0.252,-0.594 0.252,-0.789 0,-0.144 -0.046,-0.195 -0.086,-0.224 -0.049,-0.035 -0.127,-0.059 -0.219,-0.067 l -6.75,-0.011 c -0.013,0 -0.024,-0.001 -0.036,-0.002 -0.088,0.017 -0.153,0.092 -0.153,0.183 l -0.012,6.794 c -0.031,0.355 -0.185,0.616 -0.432,0.752 -0.297,0.164 -0.706,0.138 -1.219,-0.076 v 0.014 l -0.291,-0.147 c -0.298,-0.154 -0.619,-0.231 -0.951,-0.232 -1.156,-0.002 -2.097,0.937 -2.099,2.094 0,1.158 0.938,2.099 2.092,2.101 0.333,0 0.653,-0.077 0.952,-0.229 l 0.29,-0.147 v 0.013 c 0.54,-0.23 0.949,-0.26 1.243,-0.095 0.166,0.094 0.372,0.299 0.406,0.746 l -0.011,6.826 c 0,0.105 0.084,0.19 0.189,0.19 l 6.789,0.011 c 0.544,0.049 0.857,0.379 0.857,0.883 0,0.221 -0.06,0.479 -0.181,0.77 h 0.013 l -0.147,0.291 c -0.153,0.298 -0.23,0.619 -0.231,0.952 0,1.158 0.938,2.098 2.091,2.1 1.157,0.002 2.098,-0.937 2.1,-2.094 0,-0.334 -0.076,-0.653 -0.229,-0.952 l -0.147,-0.29 h 0.014 c -0.133,-0.314 -0.199,-0.581 -0.199,-0.811 0,-0.492 0.31,-0.798 0.849,-0.84 l 6.822,0.012 c 0.104,0 0.189,-0.085 0.189,-0.189 l 0.011,-6.82 c -0.023,-0.276 -0.14,-0.276 -0.245,-0.276 -0.136,0 -0.392,0.047 -0.833,0.27 l -0.572,0.287 V 11.802 C -1.882,11.854 -2.1,11.88 -2.32,11.88 -3.8,11.877 -5.004,10.67 -5.004,9.189 c 0.002,-1.488 1.211,-2.693 2.693,-2.69 0.221,0 0.439,0.027 0.651,0.081 V 6.502 l 0.569,0.292 c 0.322,0.164 0.595,0.252 0.789,0.252 0.144,0 0.196,-0.046 0.225,-0.086 0.034,-0.048 0.058,-0.127 0.066,-0.219 z"
           style="fill:#616e7d;fill-opacity:1;fill-rule:nonzero;stroke:none"
           id="path172" /></g><g
         id="g174"
         transform="translate(419.9478,510.1759)"><path
           d="m 0,0 c -0.036,-0.084 -0.127,-0.128 -0.215,-0.108 -0.011,0.005 -0.021,0.011 -0.032,0.016 L -6.554,2.63 c -0.246,0.133 -0.198,0.243 -0.157,0.339 0.056,0.128 0.202,0.346 0.585,0.664 l 0.496,0.415 -0.068,0.03 c 0.132,0.174 0.243,0.363 0.331,0.566 0.596,1.38 -0.039,2.983 -1.414,3.577 -1.372,0.593 -2.973,-0.042 -3.569,-1.414 -0.089,-0.208 -0.152,-0.421 -0.188,-0.638 l -0.072,0.032 0.041,-0.649 c 0.023,-0.364 -0.006,-0.652 -0.084,-0.832 -0.058,-0.135 -0.121,-0.163 -0.169,-0.174 -0.06,-0.013 -0.142,-0.003 -0.231,0.026 l -6.259,2.704 c -0.011,0.004 -0.022,0.009 -0.034,0.012 -0.075,0.051 -0.105,0.147 -0.068,0.232 l 2.72,6.3 c 0.113,0.342 0.076,0.644 -0.098,0.87 -0.209,0.271 -0.599,0.412 -1.16,0.42 l 0.005,0.014 -0.328,-0.02 c -0.338,-0.022 -0.666,0.034 -0.975,0.167 -1.071,0.463 -1.566,1.712 -1.104,2.784 0.466,1.073 1.714,1.568 2.784,1.106 0.308,-0.133 0.574,-0.333 0.79,-0.595 l 0.209,-0.253 0.006,0.013 c 0.409,-0.43 0.774,-0.623 1.113,-0.588 0.192,0.02 0.466,0.128 0.677,0.528 l 2.734,6.33 c 0.042,0.097 0.154,0.141 0.251,0.1 l 6.296,-2.718 c 0.523,-0.174 0.946,0.005 1.149,0.472 0.089,0.205 0.136,0.469 0.141,0.787 l 0.013,-0.006 -0.02,0.329 c -0.021,0.338 0.035,0.667 0.168,0.975 0.466,1.073 1.714,1.568 2.783,1.106 C 1.26,25.417 1.66,25.004 1.869,24.478 2.077,23.952 2.068,23.376 1.845,22.857 1.709,22.546 1.51,22.281 1.25,22.066 L 0.997,21.856 1.009,21.851 C 0.76,21.614 0.592,21.393 0.499,21.18 0.302,20.723 0.465,20.315 0.948,20.06 l 6.326,-2.732 c 0.097,-0.042 0.141,-0.154 0.1,-0.251 L 4.644,10.753 C 4.511,10.507 4.401,10.554 4.305,10.596 4.178,10.65 3.959,10.796 3.641,11.181 L 3.227,11.677 3.196,11.607 C 3.021,11.741 2.831,11.853 2.627,11.941 1.254,12.534 -0.347,11.899 -0.942,10.528 -1.539,9.147 -0.903,7.544 0.472,6.951 0.676,6.862 0.888,6.8 1.104,6.765 L 1.073,6.693 1.721,6.734 C 2.085,6.757 2.373,6.729 2.554,6.651 2.687,6.593 2.716,6.53 2.727,6.481 2.739,6.422 2.729,6.34 2.7,6.251 L 0.001,0 Z"
           style="fill:#f6a64f;fill-opacity:1;fill-rule:nonzero;stroke:none"
           id="path176" /></g><g
         id="g178"
         transform="translate(420.3765,451.0988)"><path
           d="m 0,0 c 0,-0.091 -0.064,-0.167 -0.153,-0.184 -0.012,0.001 -0.024,0.002 -0.035,0.002 l -6.801,-0.003 c -0.276,0.024 -0.276,0.142 -0.276,0.246 0,0.138 0.047,0.394 0.271,0.834 l 0.288,0.572 h -0.075 c 0.052,0.211 0.079,0.428 0.079,0.647 0,0.72 -0.28,1.395 -0.789,1.904 C -8,4.526 -8.675,4.806 -9.393,4.806 -10.874,4.805 -12.08,3.598 -12.08,2.115 -12.079,1.893 -12.053,1.676 -12,1.465 h -0.078 l 0.292,-0.573 c 0.164,-0.322 0.251,-0.595 0.251,-0.789 0,-0.145 -0.046,-0.196 -0.086,-0.225 -0.049,-0.035 -0.127,-0.058 -0.22,-0.066 l -6.75,-0.002 c -0.012,0 -0.023,-0.001 -0.035,-0.003 -0.089,0.017 -0.153,0.093 -0.153,0.184 l -0.003,6.794 c -0.031,0.355 -0.185,0.615 -0.431,0.752 -0.297,0.164 -0.707,0.139 -1.221,-0.074 v 0.014 l -0.29,-0.147 c -0.298,-0.153 -0.619,-0.23 -0.951,-0.231 -0.56,0 -1.087,0.218 -1.482,0.614 -0.397,0.396 -0.614,0.922 -0.615,1.483 0,1.157 0.94,2.097 2.095,2.098 0.332,0 0.653,-0.077 0.951,-0.23 l 0.29,-0.148 v 0.014 c 0.54,-0.23 0.949,-0.262 1.243,-0.097 0.167,0.094 0.373,0.299 0.408,0.746 l -0.003,6.826 c 0,0.104 0.085,0.189 0.188,0.189 l 6.789,0.004 c 0.545,0.048 0.86,0.378 0.86,0.883 0,0.221 -0.062,0.478 -0.182,0.769 h 0.014 l -0.147,0.29 c -0.152,0.299 -0.23,0.62 -0.23,0.952 0,1.157 0.939,2.098 2.095,2.098 0.56,0.001 1.087,-0.217 1.482,-0.613 0.397,-0.396 0.614,-0.923 0.615,-1.483 0,-0.333 -0.078,-0.653 -0.23,-0.952 l -0.149,-0.29 h 0.015 c -0.134,-0.315 -0.199,-0.582 -0.199,-0.812 0,-0.492 0.308,-0.797 0.847,-0.839 l 6.822,0.002 c 0.104,0 0.189,-0.084 0.189,-0.189 l 0.003,-6.819 c -0.023,-0.276 -0.141,-0.276 -0.246,-0.276 -0.137,0 -0.393,0.047 -0.832,0.271 l -0.572,0.288 v -0.075 c -0.211,0.053 -0.429,0.08 -0.649,0.079 -1.482,0 -2.688,-1.207 -2.688,-2.69 0.001,-0.719 0.281,-1.395 0.79,-1.903 0.509,-0.509 1.183,-0.789 1.9,-0.788 0.221,0 0.438,0.027 0.649,0.08 V 6.503 l 0.572,0.292 c 0.321,0.164 0.595,0.251 0.789,0.251 0.144,0 0.195,-0.046 0.224,-0.086 0.035,-0.049 0.058,-0.127 0.066,-0.22 z"
           style="fill:#616e7d;fill-opacity:1;fill-rule:nonzero;stroke:none"
           id="path180" /></g><g
         id="g182"
         transform="translate(420.3277,501.755)"><path
           d="m 0,0 c -0.024,-0.275 -0.143,-0.275 -0.247,-0.275 -0.137,0 -0.393,0.047 -0.832,0.273 l -0.572,0.29 V 0.212 c -0.211,0.054 -0.428,0.081 -0.648,0.081 -1.483,0.003 -2.691,-1.202 -2.694,-2.686 0,-1.485 1.204,-2.692 2.683,-2.695 0.221,-0.001 0.439,0.026 0.65,0.078 v -0.077 l 0.572,0.29 c 0.322,0.163 0.595,0.249 0.789,0.249 0.145,0 0.195,-0.047 0.225,-0.087 0.034,-0.049 0.057,-0.126 0.065,-0.219 l -0.013,-6.741 c 0,-0.091 -0.065,-0.166 -0.154,-0.183 -0.011,0.001 -0.023,0.002 -0.036,0.002 l -6.8,0.013 c -0.275,0.024 -0.275,0.144 -0.275,0.24 0,0.144 0.048,0.399 0.272,0.839 l 0.29,0.573 H -6.8 c 0.054,0.211 0.081,0.428 0.081,0.648 0,1.486 -1.204,2.693 -2.683,2.696 -1.484,0.003 -2.692,-1.202 -2.695,-2.686 0,-0.222 0.027,-0.439 0.078,-0.649 h -0.077 l 0.29,-0.573 c 0.163,-0.322 0.249,-0.595 0.249,-0.789 0,-0.145 -0.047,-0.196 -0.087,-0.225 -0.048,-0.035 -0.127,-0.058 -0.219,-0.066 l -6.75,0.014 c -0.012,0 -0.024,-0.001 -0.035,-0.003 -0.089,0.017 -0.153,0.094 -0.153,0.184 l 0.012,6.794 c -0.03,0.355 -0.182,0.617 -0.429,0.754 -0.297,0.164 -0.706,0.14 -1.22,-0.072 v 0.014 l -0.291,-0.146 c -0.298,-0.152 -0.619,-0.229 -0.952,-0.228 -1.153,0.002 -2.091,0.943 -2.091,2.097 10e-4,1.16 0.944,2.099 2.099,2.097 0.333,0 0.652,-0.079 0.951,-0.232 l 0.291,-0.149 v 0.014 c 0.539,-0.231 0.948,-0.263 1.242,-0.099 0.167,0.093 0.373,0.298 0.409,0.744 l 0.013,6.826 c 0,0.051 0.02,0.099 0.056,0.134 0.035,0.036 0.083,0.055 0.133,0.055 l 6.79,-0.012 c 0.545,0.047 0.86,0.377 0.86,0.884 0,0.21 -0.054,0.455 -0.164,0.729 l 0.019,-0.002 -0.166,0.33 c -0.152,0.298 -0.229,0.617 -0.229,0.948 0.002,1.161 0.945,2.1 2.1,2.098 1.154,-0.002 2.093,-0.943 2.093,-2.098 C -7.276,9.584 -7.354,9.264 -7.508,8.965 L -7.656,8.674 h 0.013 C -7.777,8.359 -7.844,8.091 -7.844,7.861 c 0,-0.49 0.309,-0.796 0.846,-0.839 l 6.821,-0.013 c 0.105,0 0.189,-0.085 0.189,-0.189 z"
           style="fill:#616e7d;fill-opacity:1;fill-rule:nonzero;stroke:none"
           id="path184" /></g><g
         id="g186"
         transform="translate(526.6343,470.6608)"><path
           d="m 0,0 c 0,-0.09 -0.064,-0.167 -0.152,-0.184 -0.013,0.002 -0.025,0.003 -0.037,0.003 l -6.799,-0.012 c -0.276,0.024 -0.277,0.142 -0.277,0.246 0,0.138 0.047,0.394 0.27,0.833 l 0.287,0.573 h -0.074 c 0.052,0.21 0.078,0.426 0.078,0.645 -0.001,0.722 -0.282,1.397 -0.791,1.905 -0.51,0.508 -1.186,0.787 -1.902,0.785 -1.481,-0.002 -2.685,-1.209 -2.685,-2.69 0.001,-0.224 0.027,-0.442 0.081,-0.653 h -0.078 l 0.293,-0.573 c 0.164,-0.321 0.251,-0.594 0.252,-0.789 0,-0.144 -0.046,-0.195 -0.086,-0.224 -0.049,-0.035 -0.127,-0.059 -0.22,-0.067 l -6.75,-0.011 c -0.013,0 -0.024,-0.001 -0.035,-0.002 -0.089,0.017 -0.153,0.092 -0.153,0.183 l -0.012,6.794 c -0.032,0.355 -0.185,0.616 -0.432,0.752 -0.298,0.164 -0.707,0.138 -1.219,-0.076 v 0.014 l -0.291,-0.147 c -0.299,-0.154 -0.619,-0.231 -0.952,-0.232 -1.155,-0.002 -2.096,0.937 -2.099,2.094 0,1.158 0.939,2.099 2.093,2.101 0.332,0 0.652,-0.077 0.952,-0.229 l 0.289,-0.147 v 0.013 c 0.541,-0.23 0.949,-0.26 1.243,-0.095 0.167,0.094 0.372,0.299 0.407,0.746 l -0.012,6.826 c 0,0.105 0.085,0.19 0.189,0.19 l 6.79,0.011 c 0.543,0.049 0.857,0.379 0.857,0.883 0,0.221 -0.061,0.479 -0.182,0.77 h 0.014 l -0.147,0.291 c -0.153,0.298 -0.231,0.619 -0.232,0.952 0,1.158 0.939,2.098 2.092,2.1 1.156,0.002 2.098,-0.937 2.1,-2.094 0,-0.334 -0.077,-0.653 -0.229,-0.952 l -0.147,-0.29 h 0.014 c -0.133,-0.314 -0.199,-0.581 -0.199,-0.811 0,-0.492 0.309,-0.798 0.849,-0.84 l 6.821,0.012 c 0.105,0 0.19,-0.085 0.19,-0.189 l 0.011,-6.82 c -0.023,-0.276 -0.141,-0.276 -0.246,-0.276 -0.136,0 -0.392,0.047 -0.833,0.27 l -0.571,0.287 v -0.074 c -0.211,0.052 -0.429,0.078 -0.649,0.078 -1.48,-0.003 -2.685,-1.21 -2.685,-2.691 0.003,-1.488 1.211,-2.693 2.694,-2.69 0.221,0 0.439,0.027 0.65,0.081 l 10e-4,-0.078 0.569,0.292 c 0.321,0.164 0.594,0.252 0.788,0.252 0.145,0 0.197,-0.046 0.225,-0.086 0.035,-0.048 0.058,-0.127 0.066,-0.219 z"
           style="fill:#616e7d;fill-opacity:1;fill-rule:nonzero;stroke:none"
           id="path188" /></g><g
         id="g190"
         transform="translate(526.191,510.1759)"><path
           d="m 0,0 c -0.036,-0.084 -0.127,-0.128 -0.216,-0.108 -0.01,0.005 -0.02,0.011 -0.031,0.016 L -6.554,2.63 c -0.246,0.133 -0.199,0.243 -0.157,0.339 0.056,0.128 0.201,0.346 0.585,0.664 l 0.496,0.415 -0.069,0.03 c 0.133,0.174 0.244,0.363 0.332,0.566 0.596,1.38 -0.039,2.983 -1.414,3.577 -1.372,0.593 -2.974,-0.042 -3.569,-1.414 -0.089,-0.208 -0.153,-0.421 -0.188,-0.638 l -0.073,0.032 0.042,-0.649 c 0.022,-0.364 -0.006,-0.652 -0.084,-0.832 -0.058,-0.135 -0.121,-0.163 -0.17,-0.174 -0.059,-0.013 -0.141,-0.003 -0.23,0.026 l -6.26,2.704 c -0.01,0.004 -0.022,0.009 -0.033,0.012 -0.076,0.051 -0.105,0.147 -0.069,0.232 l 2.721,6.3 c 0.113,0.342 0.076,0.644 -0.098,0.87 -0.21,0.271 -0.6,0.412 -1.161,0.42 l 0.006,0.014 -0.328,-0.02 c -0.339,-0.022 -0.666,0.034 -0.975,0.167 -1.072,0.463 -1.567,1.712 -1.105,2.784 0.467,1.073 1.714,1.568 2.785,1.106 0.307,-0.133 0.573,-0.333 0.79,-0.595 l 0.209,-0.253 0.006,0.013 c 0.408,-0.43 0.774,-0.623 1.113,-0.588 0.192,0.02 0.466,0.128 0.677,0.528 l 2.733,6.33 c 0.042,0.097 0.155,0.141 0.251,0.1 l 6.296,-2.718 c 0.523,-0.174 0.947,0.005 1.15,0.472 0.089,0.205 0.136,0.469 0.141,0.787 l 0.013,-0.006 -0.02,0.329 c -0.021,0.338 0.034,0.667 0.168,0.975 0.466,1.073 1.714,1.568 2.783,1.106 0.52,-0.224 0.92,-0.637 1.128,-1.163 0.209,-0.526 0.2,-1.102 -0.024,-1.621 C 1.709,22.546 1.51,22.281 1.249,22.066 L 0.996,21.856 1.009,21.851 C 0.759,21.614 0.592,21.393 0.499,21.18 0.301,20.723 0.465,20.315 0.947,20.06 l 6.326,-2.732 c 0.097,-0.042 0.142,-0.154 0.1,-0.251 L 4.643,10.753 C 4.511,10.507 4.4,10.554 4.304,10.596 4.177,10.65 3.959,10.796 3.641,11.181 L 3.227,11.677 3.196,11.607 C 3.021,11.741 2.831,11.853 2.626,11.941 1.254,12.534 -0.347,11.899 -0.942,10.528 -1.539,9.147 -0.903,7.544 0.472,6.951 0.676,6.862 0.888,6.8 1.104,6.765 L 1.072,6.693 1.721,6.734 C 2.085,6.757 2.372,6.729 2.553,6.651 2.687,6.593 2.716,6.53 2.727,6.481 2.739,6.422 2.729,6.34 2.699,6.251 Z"
           style="fill:#f6a64f;fill-opacity:1;fill-rule:nonzero;stroke:none"
           id="path192" /></g><g
         id="g194"
         transform="translate(526.6187,451.0988)"><path
           d="m 0,0 c 0,-0.091 -0.064,-0.167 -0.152,-0.184 -0.012,0.001 -0.024,0.002 -0.036,0.002 l -6.8,-0.003 c -0.277,0.024 -0.277,0.142 -0.277,0.246 0,0.138 0.047,0.394 0.271,0.834 l 0.288,0.572 H -6.78 c 0.052,0.211 0.079,0.428 0.079,0.647 -0.001,0.72 -0.281,1.395 -0.789,1.904 -0.509,0.508 -1.184,0.788 -1.902,0.788 -1.482,-0.001 -2.687,-1.208 -2.687,-2.691 0,-0.222 0.027,-0.439 0.08,-0.65 h -0.078 l 0.292,-0.573 c 0.164,-0.322 0.251,-0.595 0.251,-0.789 0,-0.145 -0.046,-0.196 -0.087,-0.225 -0.048,-0.035 -0.126,-0.058 -0.219,-0.066 l -6.75,-0.002 c -0.012,0 -0.024,-0.001 -0.036,-0.003 -0.088,0.017 -0.152,0.093 -0.152,0.184 l -0.004,6.794 c -0.032,0.355 -0.184,0.615 -0.431,0.752 -0.297,0.164 -0.706,0.139 -1.22,-0.074 V 7.477 L -20.724,7.33 c -0.298,-0.153 -0.618,-0.23 -0.951,-0.231 -0.559,0 -1.086,0.218 -1.482,0.614 -0.396,0.396 -0.615,0.922 -0.615,1.483 0,1.157 0.94,2.097 2.095,2.098 0.333,0 0.653,-0.077 0.952,-0.23 l 0.29,-0.148 v 0.014 c 0.54,-0.23 0.949,-0.262 1.243,-0.097 0.167,0.094 0.373,0.299 0.407,0.746 l -0.003,6.826 c 0,0.104 0.085,0.189 0.189,0.189 l 6.789,0.004 c 0.545,0.048 0.86,0.378 0.86,0.883 0,0.221 -0.062,0.478 -0.182,0.769 h 0.014 l -0.147,0.29 c -0.153,0.299 -0.23,0.62 -0.23,0.952 0,1.157 0.939,2.098 2.095,2.098 0.559,0.001 1.086,-0.217 1.482,-0.613 0.396,-0.396 0.614,-0.923 0.614,-1.483 0,-0.333 -0.077,-0.653 -0.229,-0.952 l -0.149,-0.29 h 0.014 c -0.134,-0.315 -0.199,-0.582 -0.199,-0.812 0,-0.492 0.309,-0.797 0.847,-0.839 l 6.823,0.002 c 0.104,0 0.188,-0.084 0.188,-0.189 l 0.004,-6.819 c -0.023,-0.276 -0.142,-0.276 -0.246,-0.276 -0.137,0 -0.393,0.047 -0.833,0.271 l -0.572,0.288 v -0.075 c -0.211,0.053 -0.428,0.08 -0.649,0.079 -1.481,0 -2.687,-1.207 -2.687,-2.69 0,-0.719 0.28,-1.395 0.789,-1.903 0.509,-0.509 1.183,-0.789 1.901,-0.788 0.22,0 0.438,0.027 0.649,0.08 V 6.503 l 0.572,0.292 c 0.321,0.164 0.594,0.251 0.788,0.251 0.145,0 0.196,-0.046 0.225,-0.086 0.035,-0.049 0.058,-0.127 0.066,-0.22 z"
           style="fill:#616e7d;fill-opacity:1;fill-rule:nonzero;stroke:none"
           id="path196" /></g><g
         id="g198"
         transform="translate(526.5699,501.755)"><path
           d="m 0,0 c -0.024,-0.275 -0.143,-0.275 -0.247,-0.275 -0.137,0 -0.392,0.047 -0.831,0.273 L -1.65,0.288 V 0.212 c -0.211,0.054 -0.428,0.081 -0.649,0.081 -1.482,0.003 -2.691,-1.202 -2.693,-2.686 0,-1.485 1.204,-2.692 2.683,-2.695 0.221,-0.001 0.438,0.026 0.65,0.078 v -0.077 l 0.571,0.29 c 0.322,0.163 0.596,0.249 0.79,0.249 0.144,0 0.195,-0.047 0.224,-0.087 0.035,-0.049 0.058,-0.126 0.066,-0.219 l -0.013,-6.741 c 0,-0.091 -0.066,-0.166 -0.154,-0.183 -0.012,0.001 -0.024,0.002 -0.036,0.002 l -6.8,0.013 c -0.275,0.024 -0.275,0.144 -0.275,0.24 0,0.144 0.048,0.399 0.272,0.839 l 0.29,0.573 h -0.075 c 0.053,0.211 0.08,0.428 0.081,0.648 0,1.486 -1.204,2.693 -2.684,2.696 -1.483,0.003 -2.692,-1.202 -2.694,-2.686 0,-0.222 0.027,-0.439 0.078,-0.649 h -0.078 l 0.291,-0.573 c 0.162,-0.322 0.249,-0.595 0.249,-0.789 -0.001,-0.145 -0.047,-0.196 -0.087,-0.225 -0.048,-0.035 -0.127,-0.058 -0.219,-0.066 l -6.75,0.014 c -0.013,0 -0.025,-0.001 -0.036,-0.003 -0.088,0.017 -0.153,0.094 -0.153,0.184 l 0.013,6.794 c -0.03,0.355 -0.183,0.617 -0.429,0.754 -0.297,0.164 -0.707,0.14 -1.222,-0.072 v 0.014 l -0.289,-0.146 c -0.299,-0.152 -0.62,-0.229 -0.952,-0.228 -1.153,0.002 -2.092,0.943 -2.092,2.097 0.002,1.16 0.945,2.099 2.1,2.097 0.332,0 0.652,-0.079 0.951,-0.232 l 0.29,-0.149 v 0.014 c 0.539,-0.231 0.948,-0.263 1.242,-0.099 0.167,0.093 0.374,0.298 0.41,0.744 l 0.012,6.826 c 0,0.051 0.021,0.099 0.056,0.134 0.036,0.036 0.083,0.055 0.134,0.055 l 6.789,-0.012 c 0.546,0.047 0.861,0.377 0.861,0.884 0,0.21 -0.055,0.455 -0.164,0.729 l 0.019,-0.002 -0.166,0.33 c -0.152,0.298 -0.229,0.617 -0.229,0.948 0.002,1.161 0.945,2.1 2.1,2.098 1.153,-0.002 2.092,-0.943 2.092,-2.098 0,-0.336 -0.079,-0.656 -0.232,-0.955 L -7.656,8.674 h 0.013 c -0.134,-0.315 -0.2,-0.583 -0.2,-0.813 0,-0.49 0.308,-0.796 0.845,-0.839 l 6.822,-0.013 c 0.105,0 0.189,-0.085 0.189,-0.189 z"
           style="fill:#616e7d;fill-opacity:1;fill-rule:nonzero;stroke:none"
           id="path200" /></g><g
         id="g202"
         transform="translate(330.7007,450.3795)"><path
           d="M 0,0 V 82.403 H 55.401 V 65.643 H 19.204 V 50.047 H 53.423 V 34.102 H 19.204 V 16.993 H 57.496 V 0 Z"
           style="fill:#616e7d;fill-opacity:1;fill-rule:nonzero;stroke:none"
           id="path204" /></g><g
         id="g206"
         transform="translate(481.8736,511.3669)"><path
           d="M 0,0 C -1.707,2.171 -3.938,3.899 -6.692,5.179 -9.447,6.46 -12.104,7.1 -14.665,7.1 c -1.32,0 -2.658,-0.117 -4.015,-0.349 -1.359,-0.233 -2.581,-0.681 -3.667,-1.339 -1.087,-0.66 -1.998,-1.513 -2.734,-2.56 -0.739,-1.048 -1.106,-2.386 -1.106,-4.016 0,-1.397 0.291,-2.56 0.873,-3.491 0.582,-0.931 1.434,-1.746 2.56,-2.445 1.124,-0.698 2.463,-1.338 4.016,-1.92 1.551,-0.582 3.297,-1.184 5.237,-1.804 2.793,-0.931 5.703,-1.96 8.73,-3.084 3.025,-1.126 5.779,-2.619 8.263,-4.481 2.483,-1.862 4.539,-4.172 6.168,-6.925 1.63,-2.755 2.444,-6.189 2.444,-10.3 0,-4.735 -0.873,-8.828 -2.619,-12.28 -1.745,-3.453 -4.092,-6.304 -7.041,-8.554 -2.95,-2.251 -6.325,-3.919 -10.126,-5.005 -3.802,-1.085 -7.721,-1.629 -11.755,-1.629 -5.897,0 -11.6,1.029 -17.109,3.084 -5.51,2.055 -10.088,4.984 -13.733,8.787 l 13.035,13.269 c 2.016,-2.485 4.674,-4.56 7.973,-6.227 3.296,-1.67 6.576,-2.503 9.834,-2.503 1.473,0 2.91,0.155 4.307,0.466 1.397,0.31 2.618,0.814 3.666,1.513 1.047,0.699 1.88,1.63 2.502,2.794 0.62,1.164 0.932,2.56 0.932,4.189 0,1.552 -0.39,2.87 -1.164,3.957 -0.777,1.086 -1.883,2.076 -3.318,2.968 -1.436,0.891 -3.22,1.706 -5.353,2.445 -2.135,0.736 -4.56,1.531 -7.275,2.385 -2.638,0.853 -5.219,1.863 -7.74,3.027 -2.522,1.163 -4.771,2.657 -6.75,4.481 -1.978,1.822 -3.57,4.033 -4.772,6.634 -1.203,2.599 -1.804,5.761 -1.804,9.485 0,4.578 0.932,8.497 2.793,11.756 1.862,3.259 4.307,5.935 7.333,8.031 3.026,2.094 6.439,3.626 10.242,4.597 3.801,0.969 7.642,1.455 11.523,1.455 4.655,0 9.407,-0.855 14.257,-2.561 4.848,-1.708 9.096,-4.23 12.745,-7.565 z"
           style="fill:#616e7d;fill-opacity:1;fill-rule:nonzero;stroke:none"
           id="path208" /></g><g
         id="g210"
         transform="translate(343.064,429.3463)"><path
           d="M 0,0 V -3.764 H -12.345 V 13.017 H -0.144 V 9.253 H -8.317 V 6.496 h 6.4 V 2.973 h -6.4 V 0 Z"
           style="fill:#616e7d;fill-opacity:1;fill-rule:nonzero;stroke:none"
           id="path212" /></g><g
         id="g214"
         transform="translate(364.812,442.3629)"><path
           d="m 0,0 v -16.78 h -1.846 l -7.455,10.044 c -1.438,1.99 -2.493,3.524 -2.517,3.524 h -0.024 c -0.024,0 0.048,-2.086 0.048,-4.77 V -16.78 H -13.76 V 0 h 1.846 l 7.455,-10.021 c 1.271,-1.702 2.493,-3.452 2.517,-3.452 h 0.024 c 0.024,0 -0.048,2.254 -0.048,4.652 V 0 Z"
           style="fill:#616e7d;fill-opacity:1;fill-rule:nonzero;stroke:none"
           id="path216" /></g><g
         id="g218"
         transform="translate(384.8335,442.3629)"><path
           d="M 0,0 V -1.846 H -5.634 V -16.78 h -1.941 v 14.934 h -5.61 V 0 Z"
           style="fill:#616e7d;fill-opacity:1;fill-rule:nonzero;stroke:none"
           id="path220" /></g><g
         id="g222"
         transform="translate(402.5298,427.4284)"><path
           d="M 0,0 V -1.846 H -11.339 V 14.935 H -0.145 V 13.089 H -9.373 V 7.911 h 7.407 V 6.161 H -9.373 V 0 Z"
           style="fill:#616e7d;fill-opacity:1;fill-rule:nonzero;stroke:none"
           id="path224" /></g><path
         d="m 412.441,442.363 h 4.027 v -16.78 h -4.027 z"
         style="fill:#616e7d;fill-opacity:1;fill-rule:nonzero;stroke:none"
         id="path226" /><g
         id="g228"
         transform="translate(432.8189,442.3629)"><path
           d="M 0,0 V -1.846 H -5.634 V -16.78 h -1.941 v 14.934 h -5.61 V 0 Z"
           style="fill:#616e7d;fill-opacity:1;fill-rule:nonzero;stroke:none"
           id="path230" /></g><g
         id="g232"
         transform="translate(443.6089,431.7194)"><path
           d="m 0,0 -2.661,6.232 c -0.36,0.864 -0.768,2.039 -0.791,2.039 H -3.477 C -3.5,8.271 -3.908,7.096 -4.268,6.232 L -6.928,0 Z m 0.743,-1.75 h -8.414 l -1.87,-4.387 h -2.109 l 7.287,16.781 h 1.798 L 4.722,-6.137 h -2.11 z"
           style="fill:#616e7d;fill-opacity:1;fill-rule:nonzero;stroke:none"
           id="path234" /></g><g
         id="g236"
         transform="translate(462.4556,427.4284)"><path
           d="m 0,0 v -1.846 h -10.955 v 16.781 h 1.966 V 0 Z"
           style="fill:#616e7d;fill-opacity:1;fill-rule:nonzero;stroke:none"
           id="path238" /></g><path
         d="m 466.414,442.363 h 1.966 v -16.78 h -1.966 z"
         style="fill:#616e7d;fill-opacity:1;fill-rule:nonzero;stroke:none"
         id="path240" /><g
         id="g242"
         transform="translate(483.6753,431.7194)"><path
           d="m 0,0 -2.661,6.232 c -0.36,0.864 -0.768,2.039 -0.791,2.039 H -3.477 C -3.5,8.271 -3.908,7.096 -4.268,6.232 L -6.928,0 Z m 0.743,-1.75 h -8.414 l -1.87,-4.387 h -2.109 l 7.287,16.781 h 1.798 L 4.722,-6.137 h -2.11 z"
           style="fill:#616e7d;fill-opacity:1;fill-rule:nonzero;stroke:none"
           id="path244" /></g><g
         id="g246"
         transform="translate(505.8072,442.3629)"><path
           d="m 0,0 v -16.78 h -1.846 l -7.455,10.044 c -1.438,1.99 -2.493,3.524 -2.517,3.524 h -0.024 c -0.024,0 0.048,-2.086 0.048,-4.77 V -16.78 H -13.76 V 0 h 1.846 l 7.455,-10.021 c 1.271,-1.702 2.493,-3.452 2.517,-3.452 h 0.024 c 0.024,0 -0.048,2.254 -0.048,4.652 V 0 Z"
           style="fill:#616e7d;fill-opacity:1;fill-rule:nonzero;stroke:none"
           id="path248" /></g><g
         id="g250"
         transform="translate(518.9,427.1647)"><path
           d="m 0,0 c 3.787,0 6.687,2.781 6.687,6.808 0,4.075 -2.9,6.808 -6.687,6.808 -3.812,0 -6.688,-2.733 -6.688,-6.808 C -6.688,2.781 -3.812,0 0,0 m 0,15.533 c 4.818,0 8.726,-3.667 8.726,-8.725 0,-5.058 -3.908,-8.726 -8.726,-8.726 -4.818,0 -8.702,3.668 -8.702,8.726 0,5.058 3.884,8.725 8.702,8.725"
           style="fill:#616e7d;fill-opacity:1;fill-rule:nonzero;stroke:none"
           id="path252" /></g><g
         id="g254"
         transform="translate(338.9409,408.2672)"><path
           d="m 0,0 c -0.407,1.486 -1.702,2.182 -2.9,2.182 -1.199,0 -1.894,-0.599 -1.894,-1.271 0,-1.102 1.678,-1.51 3.716,-2.253 2.492,-0.911 5.105,-2.325 5.105,-5.202 0,-3.068 -2.636,-5.25 -6.544,-5.25 -3.5,0 -5.993,1.942 -7.095,5.082 l 3.859,1.031 c 0.432,-1.27 1.63,-2.541 3.404,-2.541 1.438,0 2.11,0.671 2.11,1.487 0,1.341 -1.966,1.677 -4.364,2.589 -2.013,0.766 -4.338,1.869 -4.338,4.818 0,2.612 2.636,4.985 6.281,4.985 3.212,0 5.753,-1.965 6.544,-4.602 z"
           style="fill:#616e7d;fill-opacity:1;fill-rule:nonzero;stroke:none"
           id="path256" /></g><g
         id="g258"
         transform="translate(350.4273,404.7194)"><path
           d="m 0,0 c 2.757,0 4.268,1.343 4.268,3.524 0,2.253 -1.631,3.5 -4.268,3.5 H -3.14 V 0 Z m 0.048,8.87 c 3.884,0 6.233,-2.014 6.233,-5.346 0,-3.332 -2.349,-5.37 -6.233,-5.37 H -3.14 V -7.91 H -5.105 V 8.87 Z"
           style="fill:#616e7d;fill-opacity:1;fill-rule:nonzero;stroke:none"
           id="path260" /></g><g
         id="g262"
         transform="translate(367.4273,398.3913)"><path
           d="m 0,0 c 3.787,0 6.687,2.781 6.687,6.808 0,4.075 -2.9,6.808 -6.687,6.808 -3.812,0 -6.688,-2.733 -6.688,-6.808 C -6.688,2.781 -3.812,0 0,0 m 0,15.533 c 4.818,0 8.726,-3.667 8.726,-8.725 0,-5.058 -3.908,-8.726 -8.726,-8.726 -4.818,0 -8.702,3.668 -8.702,8.726 0,5.058 3.884,8.725 8.702,8.725"
           style="fill:#616e7d;fill-opacity:1;fill-rule:nonzero;stroke:none"
           id="path264" /></g><g
         id="g266"
         transform="translate(384.0201,404.8161)"><path
           d="M 0,0 C 2.685,0 4.075,1.462 4.075,3.476 4.075,5.609 2.564,6.928 0,6.928 H -3.332 V 0 Z m 4.458,-8.007 -3.787,6.28 C 0.407,-1.75 0.096,-1.75 -0.192,-1.75 h -3.14 v -6.257 h -1.966 v 16.78 h 5.106 c 3.931,0 6.281,-2.061 6.281,-5.297 0,-2.398 -1.271,-4.1 -3.5,-4.819 l 4.075,-6.664 z"
           style="fill:#616e7d;fill-opacity:1;fill-rule:nonzero;stroke:none"
           id="path268" /></g><g
         id="g270"
         transform="translate(404.687,413.5895)"><path
           d="M 0,0 V -1.846 H -5.634 V -16.78 h -1.941 v 14.934 h -5.61 V 0 Z"
           style="fill:#616e7d;fill-opacity:1;fill-rule:nonzero;stroke:none"
           id="path272" /></g><path
         d="m 412.273,413.59 h 4.027 v -16.78 h -4.027 z"
         style="fill:#616e7d;fill-opacity:1;fill-rule:nonzero;stroke:none"
         id="path274" /><g
         id="g276"
         transform="translate(434.1607,413.5895)"><path
           d="m 0,0 v -16.78 h -1.846 l -7.455,10.044 c -1.438,1.99 -2.493,3.524 -2.517,3.524 h -0.024 c -0.024,0 0.048,-2.086 0.048,-4.77 V -16.78 H -13.76 V 0 h 1.846 l 7.455,-10.021 c 1.271,-1.702 2.493,-3.452 2.517,-3.452 h 0.024 c 0.024,0 -0.048,2.254 -0.048,4.652 V 0 Z"
           style="fill:#616e7d;fill-opacity:1;fill-rule:nonzero;stroke:none"
           id="path278" /></g><g
         id="g280"
         transform="translate(451.6402,409.0104)"><path
           d="m 0,0 c -1.15,1.846 -3.284,2.997 -5.633,2.997 -3.836,0 -6.688,-2.757 -6.688,-6.809 0,-4.05 2.925,-6.783 6.688,-6.783 2.565,0 4.819,1.366 5.921,3.476 l 1.941,-0.527 c -1.39,-2.973 -4.363,-4.891 -7.862,-4.891 -4.818,0 -8.702,3.668 -8.702,8.725 0,5.059 3.884,8.726 8.702,8.726 3.283,0 6.112,-1.726 7.622,-4.41 z"
           style="fill:#616e7d;fill-opacity:1;fill-rule:nonzero;stroke:none"
           id="path282" /></g><g
         id="g284"
         transform="translate(467.4419,398.6549)"><path
           d="m 0,0 v -1.846 h -10.955 v 16.781 h 1.966 V 0 Z"
           style="fill:#616e7d;fill-opacity:1;fill-rule:nonzero;stroke:none"
           id="path286" /></g><g
         id="g288"
         transform="translate(483.2906,413.5895)"><path
           d="m 0,0 v -9.828 c 0,-4.747 -2.518,-7.312 -6.904,-7.312 -4.387,0 -6.88,2.565 -6.88,7.312 V 0 h 1.966 v -9.853 c 0,-3.643 1.678,-5.441 4.914,-5.441 3.26,0 4.938,1.798 4.938,5.441 V 0 Z"
           style="fill:#616e7d;fill-opacity:1;fill-rule:nonzero;stroke:none"
           id="path290" /></g><g
         id="g292"
         transform="translate(496.3111,408.9391)"><path
           d="m 0,0 c -0.359,2.037 -2.109,3.26 -4.194,3.26 -2.206,0 -3.764,-1.055 -3.764,-2.733 0,-1.845 2.325,-2.421 4.555,-3.092 2.348,-0.696 5.537,-1.75 5.537,-5.01 0,-2.829 -2.446,-4.891 -6.137,-4.891 -3.596,0 -5.873,2.11 -6.4,4.939 l 1.893,0.503 c 0.24,-1.942 1.846,-3.667 4.579,-3.667 2.494,0 4.003,1.318 4.003,3.068 0,2.445 -2.9,2.948 -5.273,3.691 -1.918,0.6 -4.746,1.462 -4.746,4.364 0,2.612 2.468,4.553 5.824,4.553 3.045,0 5.442,-1.797 5.993,-4.482 z"
           style="fill:#616e7d;fill-opacity:1;fill-rule:nonzero;stroke:none"
           id="path294" /></g><path
         d="m 501.589,413.59 h 1.966 v -16.78 h -1.966 z"
         style="fill:#616e7d;fill-opacity:1;fill-rule:nonzero;stroke:none"
         id="path296" /><g
         id="g298"
         transform="translate(522.1578,413.5895)"><path
           d="m 0,0 -7.167,-16.78 h -1.99 L -16.324,0 h 2.134 l 5.057,-12.01 c 0.48,-1.199 0.935,-2.565 0.959,-2.565 h 0.024 c 0.024,0 0.504,1.366 0.959,2.565 L -2.109,0 Z"
           style="fill:#616e7d;fill-opacity:1;fill-rule:nonzero;stroke:none"
           id="path300" /></g><path
         d="m 524.464,413.59 h 1.966 v -16.78 h -1.966 z"
         style="fill:#616e7d;fill-opacity:1;fill-rule:nonzero;stroke:none"
         id="path302" /></g></g></svg>
